<svg width="52" height="52" viewBox="0 0 52 52" fill="none" xmlns="http://www.w3.org/2000/svg">
<path d="M0 12C0 5.37258 5.37258 0 12 0H40C46.6274 0 52 5.37258 52 12V40C52 46.6274 46.6274 52 40 52H12C5.37258 52 0 46.6274 0 40V12Z" fill="#2E3238"/>
<path d="M26.2383 15.1667H25.7617C25.187 15.1667 24.6359 15.3949 24.2296 15.8013C23.8233 16.2076 23.595 16.7587 23.595 17.3333V17.5283C23.5946 17.9083 23.4943 18.2814 23.3042 18.6104C23.114 18.9393 22.8407 19.2125 22.5117 19.4025L22.0458 19.6733C21.7165 19.8635 21.3428 19.9636 20.9625 19.9636C20.5822 19.9636 20.2085 19.8635 19.8792 19.6733L19.7167 19.5867C19.2195 19.2999 18.6288 19.2221 18.0743 19.3703C17.5198 19.5186 17.0468 19.8808 16.7592 20.3775L16.5208 20.7892C16.234 21.2863 16.1562 21.877 16.3045 22.4315C16.4528 22.986 16.815 23.459 17.3117 23.7467L17.4742 23.855C17.8016 24.044 18.0739 24.3155 18.264 24.6424C18.454 24.9693 18.5552 25.3402 18.5575 25.7183V26.2708C18.559 26.6526 18.4596 27.028 18.2694 27.359C18.0791 27.6901 17.8048 27.9649 17.4742 28.1558L17.3117 28.2533C16.815 28.541 16.4528 29.014 16.3045 29.5685C16.1562 30.123 16.234 30.7136 16.5208 31.2108L16.7592 31.6225C17.0468 32.1192 17.5198 32.4814 18.0743 32.6297C18.6288 32.7779 19.2195 32.7001 19.7167 32.4133L19.8792 32.3267C20.2085 32.1365 20.5822 32.0364 20.9625 32.0364C21.3428 32.0364 21.7165 32.1365 22.0458 32.3267L22.5117 32.5975C22.8407 32.7875 23.114 33.0606 23.3042 33.3896C23.4943 33.7185 23.5946 34.0917 23.595 34.4717V34.6667C23.595 35.2413 23.8233 35.7924 24.2296 36.1987C24.6359 36.6051 25.187 36.8333 25.7617 36.8333H26.2383C26.813 36.8333 27.3641 36.6051 27.7704 36.1987C28.1767 35.7924 28.405 35.2413 28.405 34.6667V34.4717C28.4054 34.0917 28.5057 33.7185 28.6958 33.3896C28.886 33.0606 29.1593 32.7875 29.4883 32.5975L29.9542 32.3267C30.2835 32.1365 30.6572 32.0364 31.0375 32.0364C31.4178 32.0364 31.7915 32.1365 32.1208 32.3267L32.2833 32.4133C32.7805 32.7001 33.3712 32.7779 33.9257 32.6297C34.4802 32.4814 34.9532 32.1192 35.2408 31.6225L35.4792 31.2C35.766 30.7028 35.8438 30.1121 35.6955 29.5577C35.5472 29.0032 35.185 28.5302 34.6883 28.2425L34.5258 28.1558C34.1952 27.9649 33.9209 27.6901 33.7306 27.359C33.5404 27.028 33.441 26.6526 33.4425 26.2708V25.7292C33.441 25.3474 33.5404 24.972 33.7306 24.6409C33.9209 24.3099 34.1952 24.035 34.5258 23.8442L34.6883 23.7467C35.185 23.459 35.5472 22.986 35.6955 22.4315C35.8438 21.877 35.766 21.2863 35.4792 20.7892L35.2408 20.3775C34.9532 19.8808 34.4802 19.5186 33.9257 19.3703C33.3712 19.2221 32.7805 19.2999 32.2833 19.5867L32.1208 19.6733C31.7915 19.8635 31.4178 19.9636 31.0375 19.9636C30.6572 19.9636 30.2835 19.8635 29.9542 19.6733L29.4883 19.4025C29.1593 19.2125 28.886 18.9393 28.6958 18.6104C28.5057 18.2814 28.4054 17.9083 28.405 17.5283V17.3333C28.405 16.7587 28.1767 16.2076 27.7704 15.8013C27.3641 15.3949 26.813 15.1667 26.2383 15.1667Z" stroke="#9A9890" stroke-width="2.16667" stroke-linecap="round" stroke-linejoin="round"/>
<path d="M26 29.25C27.7949 29.25 29.25 27.7949 29.25 26C29.25 24.2051 27.7949 22.75 26 22.75C24.2051 22.75 22.75 24.2051 22.75 26C22.75 27.7949 24.2051 29.25 26 29.25Z" stroke="#9A9890" stroke-width="2.16667" stroke-linecap="round" stroke-linejoin="round"/>
</svg>